<?xml version="1.0" encoding="utf-8"?>
<svg version="1.1" xmlns:xlink="http://www.w3.org/1999/xlink" width="20px" height="17px" xmlns="http://www.w3.org/2000/svg">
  <g transform="matrix(1 0 0 1 -842 -990 )">
    <path d="M 14.2578125 2.18587239583333  C 12.9371279761905 1.67306857638889  11.5178571428571 1.41666666666667  10 1.41666666666667  C 8.48214285714286 1.41666666666667  7.06287202380952 1.67306857638889  5.7421875 2.18587239583333  C 4.42150297619048 2.69867621527778  3.37239583333333 3.39040798611111  2.59486607142857 4.26106770833333  C 1.81733630952381 5.13172743055555  1.42857142857143 6.07248263888889  1.42857142857143 7.08333333333333  C 1.42857142857143 7.90972222222222  1.69456845238095 8.69737413194444  2.2265625 9.4462890625  C 2.75855654761905 10.1952039930556  3.50818452380952 10.8426649305556  4.47544642857143 11.388671875  L 5.44642857142857 11.9420572916667  L 5.14508928571429 13.0045572916667  C 4.96651785714286 13.6759982638889  4.70610119047619 14.310546875  4.36383928571429 14.908203125  C 5.49479166666667 14.443359375  6.51785714285714 13.8125  7.43303571428571 13.015625  L 7.91294642857143 12.5950520833333  L 8.54910714285714 12.6614583333333  C 9.0625 12.7204861111111  9.54613095238095 12.75  10 12.75  C 11.5178571428571 12.75  12.9371279761905 12.4935980902778  14.2578125 11.9807942708333  C 15.5784970238095 11.4679904513889  16.6276041666667 10.7762586805556  17.4051339285714 9.90559895833333  C 18.1826636904762 9.03493923611111  18.5714285714286 8.09418402777778  18.5714285714286 7.08333333333333  C 18.5714285714286 6.07248263888889  18.1826636904762 5.13172743055555  17.4051339285714 4.26106770833333  C 16.6276041666667 3.39040798611111  15.5784970238095 2.69867621527778  14.2578125 2.18587239583333  Z M 18.6607142857143 3.52506510416667  C 19.5535714285714 4.61338975694444  20 5.79947916666667  20 7.08333333333333  C 20 8.3671875  19.5535714285714 9.55327690972222  18.6607142857143 10.6416015625  C 17.7678571428571 11.7299262152778  16.5550595238095 12.5895182291667  15.0223214285714 13.2203776041667  C 13.4895833333333 13.8512369791667  11.8154761904762 14.1666666666667  10 14.1666666666667  C 9.47916666666667 14.1666666666667  8.93973214285714 14.1371527777778  8.38169642857143 14.078125  C 6.90848214285714 15.3693576388889  5.19717261904762 16.2621527777778  3.24776785714286 16.7565104166667  C 2.88318452380952 16.8598090277778  2.45907738095238 16.9409722222222  1.97544642857143 17  L 1.91964285714286 17  C 1.80803571428571 17  1.70758928571429 16.9612630208333  1.61830357142857 16.8837890625  C 1.52901785714286 16.8063151041667  1.46949404761905 16.7048611111111  1.43973214285714 16.5794270833333  L 1.43973214285714 16.568359375  C 1.41741071428571 16.5388454861111  1.4155505952381 16.4945746527778  1.43415178571429 16.435546875  C 1.45275297619048 16.3765190972222  1.46019345238095 16.3396267361111  1.45647321428571 16.3248697916667  C 1.45275297619048 16.3101128472222  1.46949404761905 16.2750651041667  1.50669642857143 16.2197265625  L 1.57366071428571 16.1201171875  C 1.57366071428571 16.1201171875  1.59970238095238 16.0887586805556  1.65178571428571 16.0260416666667  C 1.70386904761905 15.9633246527778  1.73363095238095 15.9301215277778  1.74107142857143 15.9264322916667  C 1.79315476190476 15.8674045138889  1.90848214285714 15.7401258680556  2.08705357142857 15.5445963541667  C 2.265625 15.3490668402778  2.39397321428571 15.2088758680556  2.47209821428571 15.1240234375  C 2.55022321428571 15.0391710069444  2.6655505952381 14.8934461805556  2.81808035714286 14.6868489583333  C 2.97061011904762 14.4802517361111  3.09151785714286 14.2921006944444  3.18080357142857 14.1223958333333  C 3.27008928571429 13.9526909722222  3.37053571428571 13.7350260416667  3.48214285714286 13.4694010416667  C 3.59375 13.2037760416667  3.69047619047619 12.9233940972222  3.77232142857143 12.6282552083333  C 2.60416666666667 11.9715711805556  1.68340773809524 11.1599392361111  1.01004464285714 10.193359375  C 0.336681547619048 9.22677951388889  0 8.19010416666667  0 7.08333333333333  C 0 5.79947916666667  0.446428571428571 4.61338975694444  1.33928571428571 3.52506510416667  C 2.23214285714286 2.43674045138889  3.44494047619048 1.5771484375  4.97767857142857 0.9462890625  C 6.51041666666667 0.3154296875  8.18452380952381 0  10 0  C 11.8154761904762 0  13.4895833333333 0.3154296875  15.0223214285714 0.9462890625  C 16.5550595238095 1.5771484375  17.7678571428571 2.43674045138889  18.6607142857143 3.52506510416667  Z " fill-rule="nonzero" fill="#7f7f7f" stroke="none" transform="matrix(1 0 0 1 842 990 )" />
  </g>
</svg>