<?xml version="1.0" encoding="utf-8"?>
<svg version="1.1" xmlns:xlink="http://www.w3.org/1999/xlink" width="16px" height="16px" xmlns="http://www.w3.org/2000/svg">
  <g transform="matrix(1 0 0 1 -823 -103 )">
    <path d="M 831 103  C 835.48 103  839 106.52  839 111  C 839 115.48  835.48 119  831 119  C 826.52 119  823 115.48  823 111  C 823 106.52  826.52 103  831 103  Z " fill-rule="nonzero" fill="#ffffff" stroke="none" fill-opacity="0" />
    <path d="M 831 103.5  C 835.2 103.5  838.5 106.8  838.5 111  C 838.5 115.2  835.2 118.5  831 118.5  C 826.8 118.5  823.5 115.2  823.5 111  C 823.5 106.8  826.8 103.5  831 103.5  Z " stroke-width="1" stroke="#ffffff" fill="none" />
  </g>
</svg>