<?xml version="1.0" encoding="utf-8"?>
<svg version="1.1" xmlns:xlink="http://www.w3.org/1999/xlink" width="19px" height="17px" xmlns="http://www.w3.org/2000/svg">
  <g transform="matrix(1 0 0 1 -776 -990 )">
    <path d="M 15.8371394230769 10.625  C 15.9969951923077 10.69140625  16.0769230769231 10.7983940972222  16.0769230769231 10.9459635416667  L 16.0769230769231 13.8125  C 16.0769230769231 14.6905381944444  15.7553084935897 15.4412977430556  15.1120793269231 16.0647786458333  C 14.4688501602564 16.6882595486111  13.6943108974359 17  12.7884615384615 17  L 3.28846153846154 17  C 2.38261217948718 17  1.60807291666667 16.6882595486111  0.96484375 16.0647786458333  C 0.321614583333333 15.4412977430556  0 14.6905381944444  0 13.8125  L 0 4.60416666666667  C 0 3.72612847222222  0.321614583333333 2.97536892361111  0.96484375 2.35188802083333  C 1.60807291666667 1.72840711805555  2.38261217948718 1.41666666666667  3.28846153846154 1.41666666666667  L 6.20012019230769 1.41666666666667  C 6.29907852564103 1.41666666666667  6.3847155448718 1.45171440972222  6.45703125 1.52180989583333  C 6.52934695512821 1.59190538194444  6.56550480769231 1.67491319444444  6.56550480769231 1.77083333333333  C 6.56550480769231 1.97005208333333  6.46654647435898 2.08810763888889  6.26862980769231 2.125  C 5.68249198717949 2.31684027777778  5.17628205128205 2.53819444444444  4.75 2.7890625  C 4.67387820512821 2.81857638888889  4.61298076923077 2.83333333333333  4.56730769230769 2.83333333333333  L 3.28846153846154 2.83333333333333  C 2.78605769230769 2.83333333333333  2.35596955128205 3.00672743055555  1.99819711538462 3.353515625  C 1.64042467948718 3.70030381944444  1.46153846153846 4.1171875  1.46153846153846 4.60416666666667  L 1.46153846153846 13.8125  C 1.46153846153846 14.2994791666667  1.64042467948718 14.7163628472222  1.99819711538462 15.0631510416667  C 2.35596955128205 15.4099392361111  2.78605769230769 15.5833333333333  3.28846153846154 15.5833333333333  L 12.7884615384615 15.5833333333333  C 13.2908653846154 15.5833333333333  13.720953525641 15.4099392361111  14.0787259615385 15.0631510416667  C 14.4364983974359 14.7163628472222  14.6153846153846 14.2994791666667  14.6153846153846 13.8125  L 14.6153846153846 11.4440104166667  C 14.6153846153846 11.3038194444444  14.6838942307692 11.1968315972222  14.8209134615385 11.123046875  C 15.0340544871795 11.0271267361111  15.2395833333333 10.890625  15.4375 10.7135416666667  C 15.5592948717949 10.5954861111111  15.6925080128205 10.5659722222222  15.8371394230769 10.625  Z M 19 4.95833333333333  C 19 5.15017361111111  18.9276842948718 5.31618923611111  18.7830528846154 5.45638020833333  L 14.3984375 9.70638020833333  C 14.2614182692308 9.84657118055556  14.0901442307692 9.91666666666667  13.8846153846154 9.91666666666667  C 13.7932692307692 9.91666666666667  13.6981169871795 9.89822048611111  13.5991586538462 9.861328125  C 13.3022836538462 9.73589409722222  13.1538461538462 9.51822916666667  13.1538461538462 9.20833333333333  L 13.1538461538462 7.08333333333333  L 11.3269230769231 7.08333333333333  C 8.8681891025641 7.08333333333333  7.2011217948718 7.56662326388889  6.32572115384615 8.533203125  C 5.4198717948718 9.54405381944444  5.13822115384615 11.2890625  5.48076923076923 13.7682291666667  C 5.50360576923077 13.9379340277778  5.42748397435898 14.0633680555556  5.25240384615385 14.14453125  C 5.19150641025641 14.1592881944444  5.14583333333333 14.1666666666667  5.11538461538462 14.1666666666667  C 4.99358974358974 14.1666666666667  4.89463141025641 14.1187065972222  4.81850961538462 14.0227864583333  C 4.74238782051282 13.9194878472222  4.66245993589744 13.8051215277778  4.57872596153846 13.6796875  C 4.49499198717949 13.5542534722222  4.34465144230769 13.3015407986111  4.12770432692308 12.9215494791667  C 3.91075721153846 12.5415581597222  3.72235576923077 12.1744791666667  3.5625 11.8203125  C 3.40264423076923 11.4661458333333  3.25610977564103 11.0455729166667  3.12289663461539 10.55859375  C 2.98968349358974 10.0716145833333  2.92307692307692 9.62152777777778  2.92307692307692 9.20833333333333  C 2.92307692307692 8.84678819444444  2.93639823717949 8.51106770833333  2.96304086538462 8.201171875  C 2.98968349358974 7.89127604166667  3.04296875 7.55924479166667  3.12289663461539 7.205078125  C 3.20282451923077 6.85091145833333  3.30939503205128 6.52625868055555  3.44260817307692 6.23111979166667  C 3.57582131410256 5.93598090277778  3.75470753205128 5.63530815972222  3.97926682692308 5.3291015625  C 4.20382612179487 5.02289496527778  4.46454326923077 4.74989149305555  4.76141826923077 4.51009114583333  C 5.05829326923077 4.27029079861111  5.41796875 4.04340277777778  5.84044471153846 3.82942708333333  C 6.26292067307692 3.61545138888889  6.73677884615385 3.4365234375  7.26201923076923 3.29264322916667  C 7.78725961538462 3.14876302083333  8.39433092948718 3.03624131944444  9.08323317307692 2.955078125  C 9.77213541666667 2.87391493055555  10.5200320512821 2.83333333333333  11.3269230769231 2.83333333333333  L 13.1538461538462 2.83333333333333  L 13.1538461538462 0.708333333333333  C 13.1538461538462 0.3984375  13.3022836538462 0.180772569444443  13.5991586538462 0.0553385416666673  C 13.6981169871795 0.018446180555557  13.7932692307692 0  13.8846153846154 0  C 14.0825320512821 0  14.2538060897436 0.0700954861111122  14.3984375 0.210286458333333  L 18.7830528846154 4.46028645833333  C 18.9276842948718 4.60047743055555  19 4.76649305555555  19 4.95833333333333  Z " fill-rule="nonzero" fill="#7f7f7f" stroke="none" transform="matrix(1 0 0 1 776 990 )" />
  </g>
</svg>