<?xml version="1.0" encoding="utf-8"?>
<svg version="1.1" xmlns:xlink="http://www.w3.org/1999/xlink" width="20px" height="17px" xmlns="http://www.w3.org/2000/svg">
  <g transform="matrix(1 0 0 1 -905 -991 )">
    <path d="M 10.4910714285714 16.80078125  C 10.3571428571429 16.93359375  10.1934523809524 17  10 17  C 9.80654761904762 17  9.64285714285714 16.93359375  9.50892857142857 16.80078125  L 2.54464285714286 10.1380208333333  C 2.4702380952381 10.0789930555556  2.36793154761905 9.98307291666667  2.23772321428571 9.85026041666667  C 2.10751488095238 9.71744791666667  1.90104166666667 9.47580295138889  1.61830357142857 9.12532552083333  C 1.33556547619048 8.77484809027778  1.08258928571429 8.41514756944444  0.859375 8.04622395833333  C 0.636160714285714 7.67730034722222  0.437127976190476 7.23090277777778  0.262276785714286 6.70703125  C 0.0874255952380952 6.18315972222222  0 5.67404513888889  0 5.1796875  C 0 3.55642361111111  0.472470238095238 2.28732638888889  1.41741071428571 1.37239583333333  C 2.36235119047619 0.457465277777778  3.66815476190476 0  5.33482142857143 0  C 5.79613095238095 0  6.26674107142857 0.0793185763888878  6.74665178571429 0.237955729166667  C 7.2265625 0.396592881944443  7.67299107142857 0.610568576388888  8.0859375 0.8798828125  C 8.49888392857143 1.14919704861111  8.85416666666667 1.40190972222222  9.15178571428571 1.63802083333333  C 9.44940476190476 1.87413194444444  9.73214285714286 2.125  10 2.390625  C 10.2678571428571 2.125  10.5505952380952 1.87413194444444  10.8482142857143 1.63802083333333  C 11.1458333333333 1.40190972222222  11.5011160714286 1.14919704861111  11.9140625 0.8798828125  C 12.3270089285714 0.610568576388888  12.7734375 0.396592881944443  13.2533482142857 0.237955729166667  C 13.7332589285714 0.0793185763888878  14.203869047619 0  14.6651785714286 0  C 16.3318452380952 0  17.6376488095238 0.457465277777778  18.5825892857143 1.37239583333333  C 19.5275297619048 2.28732638888889  20 3.55642361111111  20 5.1796875  C 20 6.81032986111111  19.1480654761905 8.47048611111111  17.4441964285714 10.16015625  L 10.4910714285714 16.80078125  Z " fill-rule="nonzero" fill="#7f7f7f" stroke="none" transform="matrix(1 0 0 1 905 991 )" />
  </g>
</svg>